<?xml version="1.0" encoding="utf-8"?>
<!-- Generator: Adobe Illustrator 24.3.0, SVG Export Plug-In . SVG Version: 6.00 Build 0)  -->
<svg version="1.1" id="Capa_1" xmlns="http://www.w3.org/2000/svg" xmlns:xlink="http://www.w3.org/1999/xlink" x="0px" y="0px"
	 viewBox="0 0 438 300.6" style="enable-background:new 0 0 438 300.6;" xml:space="preserve">
<style type="text/css">
	.st0{fill:#F2F2F2;}
	.st1{fill:none;}
	.st2{fill:#FFFFFF;}
	.st3{font-family:'MicrosoftSansSerif';}
	.st4{font-size:32px;}
</style>
<g>
	<g id="Layer_2">
		<g id="Layer_1-2">
			<g id="_404_text">
				<g id="text_404">
					<path id="_Compound_Clipping_Path_" class="st0" d="M79.8,182.5V154H6.4v-27.6L49.1,9.6h39.8L42.6,122.5h37.2V74H116v48.5h16.5
						V154H116v28.6L79.8,182.5z"/>
					<path id="_Compound_Clipping_Path_2" class="st0" d="M165.8,27.9c11.3-14.3,28-21.5,50.2-21.5s38.9,7.2,50.2,21.5
						c11.3,14.3,16.9,37.3,16.9,69s-5.6,54.4-16.8,68.2c-11.2,13.7-27.9,20.6-50.3,20.6s-39.1-6.9-50.3-20.6
						c-11.2-13.7-16.8-36.4-16.8-68.1S154.6,42.3,165.8,27.9z M245.8,96.2c0-21.6-2.3-36.7-6.8-45.3c-4.5-8.7-12.2-13-22.9-13
						s-18.4,4.4-23,13.2c-4.6,8.7-6.9,23.8-6.9,45.3s2.4,36.5,7.1,45.1c4.7,8.6,12.4,12.8,23.1,12.8c10.7,0,18.3-4.3,22.8-12.8
						S245.9,117.8,245.8,96.2L245.8,96.2z"/>
					<path id="_Compound_Clipping_Path_3" class="st0" d="M373.2,182.5V154h-73.4v-27.6L342.5,9.6h39.8L336,122.5h37.2V74h36.2v48.5
						h16.5V154h-16.5v28.6L373.2,182.5z"/>
				</g>
			</g>
		</g>
	</g>
</g>
<rect x="7" y="208" class="st1" width="414" height="84"/>
<text transform="matrix(1 0 0 1 18.9844 235.5557)" class="st2 st3 st4">UPS! PARECE QUE ESTÁS </text>
<text transform="matrix(1 0 0 1 22.9359 279.1393)" class="st2 st3 st4">PERDIDO EN EL ESPACIO</text>
<rect x="9" y="219" class="st1" width="399.9" height="4.5"/>
<text transform="matrix(1 0 0 1 -454.6206 -133)" style="font-family:'ArialMT'; font-size:36px;">Lorem ipsum</text>
</svg>
